<mxfile host="app.diagrams.net" modified="2024-06-23T00:34:20.680Z" agent="Mozilla/5.0 (Windows NT 10.0; Win64; x64) AppleWebKit/537.36 (KHTML, like Gecko) Chrome/126.0.0.0 Safari/537.36" etag="IXFnFbjZTqzBJgaLiGdR" version="24.6.2" type="device" pages="2">
  <diagram name="Page-1" id="CaEfUG8QsgtGvWu8mydP">
    <mxGraphModel dx="1674" dy="788" grid="1" gridSize="10" guides="0" tooltips="1" connect="1" arrows="1" fold="1" page="1" pageScale="1" pageWidth="850" pageHeight="1100" background="#0A0A0A" math="0" shadow="0">
      <root>
        <mxCell id="0" />
        <mxCell id="1" style="locked=1;" parent="0" />
        <mxCell id="UQGTS-67XtDg3RFHlaop-1" value="" style="rounded=0;whiteSpace=wrap;html=1;fillColor=#0A0A0A;" parent="1" vertex="1">
          <mxGeometry x="150" y="10" width="480" height="760" as="geometry" />
        </mxCell>
        <mxCell id="UQGTS-67XtDg3RFHlaop-2" value="" style="rounded=0;whiteSpace=wrap;html=1;fillColor=#000000;strokeColor=#FFFFFF;" parent="1" vertex="1">
          <mxGeometry x="160" y="20" width="460" height="60" as="geometry" />
        </mxCell>
        <mxCell id="UQGTS-67XtDg3RFHlaop-6" style="edgeStyle=orthogonalEdgeStyle;rounded=0;orthogonalLoop=1;jettySize=auto;html=1;exitX=1;exitY=0.5;exitDx=0;exitDy=0;" parent="1" source="UQGTS-67XtDg3RFHlaop-3" target="UQGTS-67XtDg3RFHlaop-2" edge="1">
          <mxGeometry relative="1" as="geometry" />
        </mxCell>
        <mxCell id="UQGTS-67XtDg3RFHlaop-3" value="" style="rounded=0;whiteSpace=wrap;html=1;fillColor=#000000;fillStyle=solid;strokeColor=#FFFFFF;" parent="1" vertex="1">
          <mxGeometry x="160" y="20" width="120" height="60" as="geometry" />
        </mxCell>
        <mxCell id="UQGTS-67XtDg3RFHlaop-4" value="" style="shape=mxgraph.sysml.x;" parent="1" vertex="1">
          <mxGeometry x="400" y="360" width="40" height="40" as="geometry" />
        </mxCell>
        <mxCell id="UQGTS-67XtDg3RFHlaop-5" value="" style="shape=mxgraph.sysml.x;strokeColor=#FFFFFF;" parent="1" vertex="1">
          <mxGeometry x="160" y="20" width="120" height="60" as="geometry" />
        </mxCell>
        <mxCell id="UQGTS-67XtDg3RFHlaop-8" value="Untitled Layer" style="locked=1;" parent="0" />
        <mxCell id="UQGTS-67XtDg3RFHlaop-9" value="Home" style="text;strokeColor=none;align=center;fillColor=none;html=1;verticalAlign=middle;whiteSpace=wrap;rounded=0;fontColor=#FFFFFF;" parent="UQGTS-67XtDg3RFHlaop-8" vertex="1">
          <mxGeometry x="330" y="40" width="60" height="20" as="geometry" />
        </mxCell>
        <mxCell id="UQGTS-67XtDg3RFHlaop-10" value="Menu" style="text;strokeColor=none;align=center;fillColor=none;html=1;verticalAlign=middle;whiteSpace=wrap;rounded=0;fontColor=#FFFFFF;" parent="UQGTS-67XtDg3RFHlaop-8" vertex="1">
          <mxGeometry x="430" y="40" width="60" height="20" as="geometry" />
        </mxCell>
        <mxCell id="UQGTS-67XtDg3RFHlaop-11" value="Our Story" style="text;strokeColor=none;align=center;fillColor=none;html=1;verticalAlign=middle;whiteSpace=wrap;rounded=0;fontColor=#FFFFFF;" parent="UQGTS-67XtDg3RFHlaop-8" vertex="1">
          <mxGeometry x="530" y="40" width="60" height="20" as="geometry" />
        </mxCell>
        <mxCell id="VmLfWfN4QhXrrW_cGodi-1" value="a" style="rounded=0;whiteSpace=wrap;html=1;fillColor=#000000;strokeColor=#FFFFFF;" parent="UQGTS-67XtDg3RFHlaop-8" vertex="1">
          <mxGeometry x="160" y="720" width="460" height="40" as="geometry" />
        </mxCell>
        <mxCell id="VmLfWfN4QhXrrW_cGodi-2" value="" style="whiteSpace=wrap;html=1;aspect=fixed;strokeColor=#FFFFFF;fillColor=#000000;" parent="UQGTS-67XtDg3RFHlaop-8" vertex="1">
          <mxGeometry x="170" y="730" width="20" height="20" as="geometry" />
        </mxCell>
        <mxCell id="VmLfWfN4QhXrrW_cGodi-3" value="" style="whiteSpace=wrap;html=1;aspect=fixed;strokeColor=#FFFFFF;fillColor=#000000;" parent="UQGTS-67XtDg3RFHlaop-8" vertex="1">
          <mxGeometry x="200" y="730" width="20" height="20" as="geometry" />
        </mxCell>
        <mxCell id="VmLfWfN4QhXrrW_cGodi-4" value="" style="whiteSpace=wrap;html=1;aspect=fixed;strokeColor=#FFFFFF;fillColor=#000000;" parent="UQGTS-67XtDg3RFHlaop-8" vertex="1">
          <mxGeometry x="230" y="730" width="20" height="20" as="geometry" />
        </mxCell>
        <mxCell id="VmLfWfN4QhXrrW_cGodi-5" value="" style="shape=mxgraph.sysml.x;strokeColor=#FFFFFF;" parent="UQGTS-67XtDg3RFHlaop-8" vertex="1">
          <mxGeometry x="200" y="730" width="20" height="20" as="geometry" />
        </mxCell>
        <mxCell id="VmLfWfN4QhXrrW_cGodi-6" value="" style="shape=mxgraph.sysml.x;strokeColor=#FFFFFF;" parent="UQGTS-67XtDg3RFHlaop-8" vertex="1">
          <mxGeometry x="230" y="730" width="20" height="20" as="geometry" />
        </mxCell>
        <mxCell id="VmLfWfN4QhXrrW_cGodi-7" value="" style="shape=mxgraph.sysml.x;strokeColor=#FFFFFF;" parent="UQGTS-67XtDg3RFHlaop-8" vertex="1">
          <mxGeometry x="170" y="730" width="20" height="20" as="geometry" />
        </mxCell>
        <mxCell id="VmLfWfN4QhXrrW_cGodi-8" value="&lt;font color=&quot;#ffffff&quot;&gt;Amet et&lt;/font&gt;" style="text;strokeColor=none;align=center;fillColor=none;html=1;verticalAlign=middle;whiteSpace=wrap;rounded=0;" parent="UQGTS-67XtDg3RFHlaop-8" vertex="1">
          <mxGeometry x="280" y="730" width="60" height="20" as="geometry" />
        </mxCell>
        <mxCell id="VmLfWfN4QhXrrW_cGodi-9" value="&lt;font color=&quot;#ffffff&quot;&gt;Dolor sit&lt;/font&gt;" style="text;strokeColor=none;align=center;fillColor=none;html=1;verticalAlign=middle;whiteSpace=wrap;rounded=0;" parent="UQGTS-67XtDg3RFHlaop-8" vertex="1">
          <mxGeometry x="370" y="730" width="60" height="20" as="geometry" />
        </mxCell>
        <mxCell id="VmLfWfN4QhXrrW_cGodi-10" value="&lt;font color=&quot;#ffffff&quot;&gt;Lorem ipsum 2025&lt;/font&gt;" style="text;strokeColor=none;align=center;fillColor=none;html=1;verticalAlign=middle;whiteSpace=wrap;rounded=0;" parent="UQGTS-67XtDg3RFHlaop-8" vertex="1">
          <mxGeometry x="460" y="730" width="110" height="20" as="geometry" />
        </mxCell>
        <object label="Content&#xa;Content" id="VWHL_kOiVzAmHibduJev-1">
          <mxCell style="locked=1;" parent="0" />
        </object>
        <mxCell id="VWHL_kOiVzAmHibduJev-9" value="" style="rounded=0;whiteSpace=wrap;html=1;strokeColor=#FFFFFF;fillColor=#000000;" vertex="1" parent="VWHL_kOiVzAmHibduJev-1">
          <mxGeometry x="160" y="380" width="460" height="210" as="geometry" />
        </mxCell>
        <mxCell id="VWHL_kOiVzAmHibduJev-5" value="" style="rounded=0;whiteSpace=wrap;html=1;strokeColor=#FFFFFF;fillColor=#000000;" vertex="1" parent="VWHL_kOiVzAmHibduJev-1">
          <mxGeometry x="160" y="130" width="460" height="210" as="geometry" />
        </mxCell>
        <mxCell id="VWHL_kOiVzAmHibduJev-2" value="&lt;font size=&quot;1&quot; color=&quot;#ffffff&quot;&gt;&lt;b style=&quot;font-size: 19px;&quot;&gt;Title&lt;/b&gt;&lt;/font&gt;" style="text;strokeColor=none;align=center;fillColor=none;html=1;verticalAlign=middle;whiteSpace=wrap;rounded=0;" vertex="1" parent="VWHL_kOiVzAmHibduJev-1">
          <mxGeometry x="270" y="80" width="240" height="50" as="geometry" />
        </mxCell>
        <mxCell id="VWHL_kOiVzAmHibduJev-3" value="" style="whiteSpace=wrap;html=1;aspect=fixed;fillColor=#000000;strokeColor=#FFFFFF;" vertex="1" parent="VWHL_kOiVzAmHibduJev-1">
          <mxGeometry x="160" y="130" width="210" height="210" as="geometry" />
        </mxCell>
        <mxCell id="VWHL_kOiVzAmHibduJev-4" value="" style="shape=mxgraph.sysml.x;strokeColor=#FFFFFF;" vertex="1" parent="VWHL_kOiVzAmHibduJev-1">
          <mxGeometry x="160" y="130" width="210" height="210" as="geometry" />
        </mxCell>
        <mxCell id="VWHL_kOiVzAmHibduJev-6" value="&lt;font style=&quot;font-size: 13px;&quot; color=&quot;#ffffff&quot;&gt;Ea Landem coronadonis nec w glaebam leo memoria Virtute diam urna specie sed saepe tiomine Animi cras vero si nam diam elit. Cum semper lius species odio ab. E ipsam usus et se meritornm urna in Communeâ€™o agitur mus sunt, eum criminales opposito mazim cras muneris odit rem per eum quasi.&amp;nbsp;&lt;/font&gt;" style="text;strokeColor=none;align=left;fillColor=none;html=1;verticalAlign=middle;whiteSpace=wrap;rounded=0;fontSize=16;" vertex="1" parent="VWHL_kOiVzAmHibduJev-1">
          <mxGeometry x="380" y="140" width="240" height="190" as="geometry" />
        </mxCell>
        <mxCell id="VWHL_kOiVzAmHibduJev-7" value="" style="whiteSpace=wrap;html=1;aspect=fixed;fillColor=#000000;strokeColor=#FFFFFF;" vertex="1" parent="VWHL_kOiVzAmHibduJev-1">
          <mxGeometry x="410" y="380" width="210" height="210" as="geometry" />
        </mxCell>
        <mxCell id="VWHL_kOiVzAmHibduJev-8" value="" style="shape=mxgraph.sysml.x;strokeColor=#FFFFFF;" vertex="1" parent="VWHL_kOiVzAmHibduJev-1">
          <mxGeometry x="410" y="380" width="210" height="210" as="geometry" />
        </mxCell>
        <mxCell id="VWHL_kOiVzAmHibduJev-11" value="&lt;font color=&quot;#ffffff&quot;&gt;&lt;span style=&quot;font-size: 13px;&quot;&gt;Minim atque ut veneni leo littera belgos, S pereunt li rem nisi at netus ea ea vel rem apparct mi qui potiorue est ipsa qui saepe quod w at Certum Nibh. Liber nisi tutori, M renasci at eu odit y quam deliciae absolute sem crimine vel propositum odit se coronadonis per gentes serpens te eum ME! Celeritas nam cras.&lt;/span&gt;&lt;/font&gt;" style="text;strokeColor=none;align=left;fillColor=none;html=1;verticalAlign=middle;whiteSpace=wrap;rounded=0;fontSize=16;" vertex="1" parent="VWHL_kOiVzAmHibduJev-1">
          <mxGeometry x="170" y="390" width="240" height="190" as="geometry" />
        </mxCell>
        <mxCell id="VWHL_kOiVzAmHibduJev-12" value="&lt;font color=&quot;#ffffff&quot;&gt;Ex nemo sint hac enim elit sint usus usus quo columbam si divini quantum typi ea odio me hic ac.&amp;nbsp;&lt;/font&gt;" style="text;strokeColor=none;align=center;fillColor=none;html=1;verticalAlign=middle;whiteSpace=wrap;rounded=0;fontSize=16;" vertex="1" parent="VWHL_kOiVzAmHibduJev-1">
          <mxGeometry x="180" y="630" width="420" height="50" as="geometry" />
        </mxCell>
      </root>
    </mxGraphModel>
  </diagram>
  <diagram id="bVciPZLFrNmY_IPkFew_" name="Page-2">
    <mxGraphModel grid="0" page="0" gridSize="10" guides="1" tooltips="1" connect="1" arrows="1" fold="1" pageScale="1" pageWidth="850" pageHeight="1100" math="0" shadow="0">
      <root>
        <mxCell id="0" />
        <mxCell id="1" parent="0" />
      </root>
    </mxGraphModel>
  </diagram>
</mxfile>
